<svg id="Layer_1" xmlns="http://www.w3.org/2000/svg" width="48.2" height="33.1" viewBox="0 0 48.2 33.1"><style><![CDATA[
	.st0{fill:none;stroke:#FFFFFF;stroke-width:2;stroke-miterlimit:10;}
]]></style><path class="st0" d="M30.4 1.6z"/><ellipse class="st0" cx="29.3" cy="14.2" rx="3.4" ry="13.2"/><path class="st0" d="M7.1 14.3c0 3.3.6 5.9 1.3 5.9 11.7 0 16.8 4.7 19.6 6.8.9.6 1.3.6 1.3.6-1.9 0-3.4-5.9-3.4-13.2 0-6.6 1.2-12 2.8-13.1-.2.1-.5.2-.8.5-2.8 2-7.9 6.7-19.6 6.7-.6-.2-1.2 2.5-1.2 5.8zM29.3 1c-.1 0 0 0 0 0z"/><path class="st0" d="M1.1 14.2c0 3.1 1.6 5.6 3.7 5.6h3c-.4-1.1-.7-3.2-.7-5.6 0-2.4.3-4.5.7-5.6h-3c-2.1 0-3.7 2.6-3.7 5.6zM10.3 31.9c1.1.7 3.6-.7 3.6-.7s1-.5 1-1.2c0-.9-1-.9-1-1.9 0-.9 1-.9 1-1.9 0-.9-1-.9-1-1.9 0-.9 1-.9 1-1.9 0-.9-1-.9-1-1.9l-3.7-.5c0 .3-1.5 11 .1 11.9zM48.2 14.7H37.7M41.5 3.9l-4 3.5M41.3 24.9l-3.5-4"/></svg>