<svg xmlns="http://www.w3.org/2000/svg" width="190" height="190" viewBox="0 0 190 190"><path fill="#95B84F" d="M189.76 94.334c0 52.057-42.203 94.26-94.262 94.26-52.063 0-94.258-42.203-94.258-94.26C1.24 42.272 43.434.074 95.498.074c52.06 0 94.262 42.198 94.262 94.26z"/><path fill="#39653B" d="M48.267 120.953l16.317 16.315 49.488 49.49c39.113-7.82 69.484-39.84 74.836-79.782l-47.012-47.013"/><path fill="#FFF" d="M72.187 143.97c-.697 0-1.394-.265-1.925-.796L25.576 98.49c-1.354-1.353-3.28-4.443-1.007-9.935 3.058-7.377 12.917-16.388 20.068-16.388 2.057 0 3.854.712 5.2 2.06L72.185 96.57l46.842-46.842c1.348-1.345 3.143-2.058 5.204-2.058 7.15 0 17.012 9.01 20.066 16.388 2.276 5.492.347 8.58-1.008 9.933l-69.18 69.184c-.53.53-1.226.797-1.92.797z"/></svg>