<svg xmlns="http://www.w3.org/2000/svg" width="33" height="30" viewBox="0 0 33 30"><path fill="#FFF" d="M20.842.46H2.035C1.135.46.4 1.196.4 2.097v11.448c0 .898.735 1.635 1.635 1.635h11.447l3.27 3.27v-3.27h4.09c.9 0 1.636-.736 1.636-1.635v-5.04V2.098c0-.9-.737-1.637-1.636-1.637z"/><path fill="#843832" d="M21.997.942c.296.295.48.704.48 1.154v11.448c0 .898-.736 1.635-1.636 1.635h-4.088v3.27l-3.27-3.27H2.033c-.45 0-.858-.185-1.155-.48l3.68 3.68 11.162 11.16c8.82-1.764 15.672-8.985 16.88-17.994L21.996.942z"/></svg>