<svg xmlns="http://www.w3.org/2000/svg" width="33" height="30" viewBox="0 0 33 30"><path fill="#843832" d="M32.537 11.776L23.107 1.62s-1.837-.098-2.004 0c-.167.097-3.468.303-3.468.303l-1.65 1.114.124 3.38s1.278 4.253 1.278 4.46c0 .206-1.032 2.888-1.28 2.97-.247.083-3.012.66-3.012.66L7.94 13.89l-3.206 1.39L16.45 29.915c8.53-2.067 15.043-9.257 16.087-18.14z"/><g fill="#FFF"><path d="M6.372 5.857H.512c.11.525.378.943.874 1.12h4.19c.453-.24.657-.667.796-1.12zM19.47 6.977h4.19c.494-.177.762-.594.872-1.12h-5.86c.14.453.343.88.797 1.12z"/><path d="M16.464 5.068v-1.23c.68.103 1.253.236 1.512.412.206.14.33.364.42.63h6.186c-.082-1.117-.558-2.344-.98-2.84C21.79-.102 12.525.09 12.525.09S3.258-.103 1.442 2.04c-.42.496-.896 1.723-.98 2.84H6.65c.092-.266.215-.49.42-.63.26-.176.832-.31 1.512-.412v1.23L6.926 6.96l-2.41 5.94v1.916c0 .38.308.687.688.687h14.638c.38 0 .687-.308.687-.688V12.9l-2.41-5.94-1.656-1.892zm-1.286-1.38V4.88H9.866V3.688c1.35-.123 3.96-.123 5.312 0zm-2.656 9.15c-1.786 0-3.234-1.446-3.234-3.232s1.447-3.233 3.234-3.233c1.786 0 3.234 1.447 3.234 3.233s-1.448 3.233-3.234 3.233z"/></g></svg>