<svg xmlns="http://www.w3.org/2000/svg" width="25" height="25" viewBox="0 0 25 25"><path fill="#761758" d="M11.84 20.01c-4.143 0-7.513-3.37-7.513-7.51s3.37-7.51 7.512-7.51c4.14 0 7.508 3.37 7.508 7.51s-3.37 7.51-7.51 7.51z"/><path fill="#E0D747" d="M11.84 7.99c2.485 0 4.508 2.023 4.508 4.51 0 2.486-2.022 4.51-4.51 4.51-2.487 0-4.51-2.023-4.51-4.51 0-2.487 2.023-4.51 4.51-4.51m0-6C6.032 1.99 1.33 6.695 1.33 12.5s4.703 10.51 10.51 10.51c5.805 0 10.51-4.705 10.51-10.51S17.643 1.99 11.838 1.99z"/></svg>