<svg xmlns="http://www.w3.org/2000/svg" width="34" height="42" viewBox="0 0 34 42"><path fill="#FFF" d="M22.73 32.857H11.837c-.616 0-.915-.426-.916-.916 0-.49.3-.915.916-.915h10.89c.618 0 .917.426.917.916s-.3.917-.916.917zM17.487.197c7.24 0 13.09 5.85 13.09 13.063 0 3.686-1.545 7.034-4.012 9.408-.773.932-1.23 2.12-1.377 5.48-.038.808-.634 1.18-1.26 1.15-.63-.026-1.19-.452-1.154-1.26.16-3.56.694-5.456 2.036-7.03 2.033-1.938 3.35-4.722 3.35-7.748 0-5.882-4.768-10.648-10.678-10.65-5.88.002-10.646 4.768-10.646 10.65 0 3.025 1.315 5.81 3.348 7.747 1.342 1.575 1.88 3.47 2.037 7.03.036.81-.524 1.234-1.152 1.26-.626.027-1.224-.344-1.26-1.15-.15-3.36-.603-4.547-1.378-5.48-2.467-2.373-4.01-5.72-4.01-9.407 0-7.215 5.85-13.064 13.066-13.064zm5.24 35.672H11.84c-.617 0-.915-.427-.916-.917 0-.49.3-.916.916-.916h10.89c.618 0 .917.426.917.916s-.3.916-.916.916zm-1.175 3.013h-8.537c-.62 0-.917-.426-.918-.916 0-.49.3-.916.918-.916h8.537c.616 0 .916.427.916.917s-.3.916-.917.916zm-1.307 1.236c-.458.985-1.62 1.685-2.98 1.685-1.36 0-2.523-.7-2.982-1.686h5.962z"/></svg>