<svg width="30" height="33" xmlns="http://www.w3.org/2000/svg"><title>Layer 1</title><path d="M29.368 12.32L19.998.92l.616 3.69-.005 12.703-19.3 2.526 10.63 9.403c9.024-.758 16.423-7.82 17.428-16.924z" fill="#843834"/><path d="M14.763 5.4h.002c1.34 1.21 2.182 2.955 2.182 4.894 0 3.643-2.978 6.607-6.636 6.607-3.657 0-6.635-2.963-6.635-6.606 0-1.938.842-3.683 2.182-4.894.01-.01.02-.02.032-.028l-5.846-.02-.018 4.865v.04l-.023 6.99c-.003.68.182 1.308.49 1.795.22.344.498.62.817.796.257.142.54.222.833.223l16.304.052c1.187.004 2.156-1.252 2.16-2.8l.025-6.992v-.04l.017-4.863-5.887-.018z" fill="#FFF"/><path d="M10.31 4.545c-3.204 0-5.803 2.574-5.803 5.75s2.6 5.747 5.804 5.747 5.804-2.573 5.804-5.748-2.598-5.748-5.803-5.748zm0 10.426c-2.607 0-4.722-2.093-4.722-4.676s2.115-4.678 4.723-4.678c2.61 0 4.724 2.094 4.724 4.678S12.92 14.97 10.31 14.97z" fill="#FFF"/><path d="M19.998.92c-.157-.226-.34-.42-.538-.57-.298-.223-.637-.35-.996-.35H2.16C.974 0 .01 1.378.01 3.07v1.54h6.923c.99-.586 2.145-.923 3.38-.923 1.233 0 2.388.338 3.378.923h6.925V3.07c0-.836-.236-1.595-.617-2.15zm-1.782 2.182c0 .167-.136.304-.304.304h-1.518c-.168 0-.305-.137-.305-.304V1.507c0-.167.136-.304.304-.304h1.52c.167 0 .303.137.303.304v1.595z" fill="#FFF"/></svg>