<svg xmlns="http://www.w3.org/2000/svg" width="35" height="35" viewBox="0 0 35 35"><path fill="#FFF" d="M17.5 2.196c8.438 0 15.304 6.865 15.304 15.304S25.938 32.804 17.5 32.804 2.196 25.938 2.196 17.5 9.062 2.196 17.5 2.196m0-2C7.943.196.196 7.943.196 17.5S7.943 34.804 17.5 34.804 34.804 27.057 34.804 17.5 27.057.196 17.5.196z"/><path fill="none" stroke="#FFF" stroke-width="2" stroke-linecap="round" stroke-linejoin="round" stroke-miterlimit="10" d="M24.65 19.305c0 3.95-3.2 7.15-7.15 7.15s-7.15-3.2-7.15-7.15"/><circle fill="#FFF" cx="9.875" cy="12.079" r="1.525"/><circle fill="#FFF" cx="24.875" cy="12.079" r="1.525"/></svg>