<svg width="37" height="40" xmlns="http://www.w3.org/2000/svg" xmlns:xlink="http://www.w3.org/1999/xlink"><defs><svg id="a" height="33" width="30"><title>Layer 1</title><path fill="#843834" d="M25.7 14.171L11.185.002l-4.48 3.814s-3.43 6.1-3.086 6.616c.342.514-.172 12.158-.172 12.158l-1.03 1.383 8.756 7.445C18.95 29.183 24.81 22.43 25.7 14.172z"/><path fill="#FFF" d="M2.418 4.642v3.3H0v4.035h2.418V23.97h4.965V11.978h3.333s.312-1.935.464-4.05H7.403V5.165c0-.41.54-.965 1.076-.965h2.706V0h-3.68c-5.21 0-5.088 4.04-5.088 4.642zm0 0"/></svg></defs><title>Layer 1</title><use x=".031" y="1.495" transform="matrix(1.21533 0 0 1.21533 -.037 -1.817)" xlink:href="#a"/></svg>