<svg xmlns="http://www.w3.org/2000/svg" width="236" height="150" viewBox="0 0 236 150"><path fill="#623180" d="M.847 0L152.76 150H236v-14.357l-25-23.693V87.58l-13.827-10.153.44-1.885 1.213-3.92 2.904-8.784-.017.468L220.453 81H236v-1.754L214.047 19.93 193.1 0"/><path fill="#d8352f" d="M195.69 81l3.05-9.285 4.258-12.738 5.574-16.55 5.224 16.53 4.005 12.762 2.876 9.28h15.927l-22.545-61h-11.754L179.76 81h15.93zm-19.87-6.558c4.702-4.785 6.18-10.617 6.18-20.627V46.55l.203-4.55H157v14h9v2.777c0 2.35-.09 4.875-1.835 6.617-1.392 1.48-3.31 2.435-6.53 2.435-2.787 0-4.746-1.13-5.88-2.612-1.392-1.83-2.195-4.002-2.195-15.318 0-11.317.9-13.407 2.294-15.234 1.133-1.48 3.236-2.698 6.02-2.698 4.925 0 7.368 2.038 8.655 6.21l13.208-7.114c-3.342-7.042-10.104-12.678-21.85-12.678-7.484 0-12.703 2.44-17.232 6.966-6.524 6.525-6.262 15.232-6.262 24.547 0 9.31-.262 18.015 6.262 24.54 4.53 4.528 9.967 6.966 17.19 6.966 6.79 0 12.667-1.476 17.974-6.964zM153 150h39v-14h-25v-11h25v-14h-25v-11h25V88h-39v62zm57-62h-16v62h42v-14h-26V88z"/></svg>