<svg id="Layer_1" xmlns="http://www.w3.org/2000/svg" width="667.1" height="225" viewBox="0 0 667.1 225"><style><![CDATA[
	.st0{fill:#FFCF14;}
	.st1{fill:#623180;}
]]></style><path class="st1" d="M221.9 311.9s.4.5.8.8c7.6 7.5 24.4 14.5 41 14.5 27 0 41.4-13.6 41.6-32.3.3.3.7.6 1 1 1 1.1 2 2.2 3.1 3.1 1 1.1 2 2.2 3.1 3.1 1 1.1 2 2.2 3.1 3.1 1 1.1 2 2.2 3.1 3.1 1 1.1 2 2.2 3.1 3.1 1 1.2 2.2 2.3 3.4 3.3 7.3 8.2 18.4 12.3 31 12.3 16.5 0 30.4-7.1 36.7-21.2.4.1.8.1 1.2.1h1v2.2c0 .9 1.3.8 2.2.8h.8v2.4c0 .9 1.4.6 2.3.6h1.7v2.5c0 .9.5 1.5 1.4 1.5h1.6v1.6c0 .9.6 1.4 1.5 1.4h1.5v1.7c0 .9.8 1.3 1.7 1.3h1.3v1.9c0 .9.9 1.1 1.8 1.1h41c16.4 0 28.5-5.5 33.2-17v.2c0 .9 1.1.8 2 .8h1v2.4c0 .9 1.2.6 2.1.6h1.9v2.5c0 .9.3 1.5 1.2 1.5h1.8v1.6c0 .9.4 1.4 1.3 1.4h1.7v1.7c0 .9.6 1.3 1.5 1.3h1.5v1.9c0 .9.7 1.1 1.6 1.1H528c.9 0 1.1-.2 1.1-1.1V297h.7l.7 1.6c.4 1 .9 1.4 2.2 1.4h.2l.7 1.6c.4 1 .9 1.4 2.2 1.4h.2l.7 1.6c.4 1 .9 1.4 2.2 1.4h.2l.7 1.6c.4 1 .9 1.4 2.2 1.4h.2l.7 1.6c.4 1 .8 1.3 2 1.4l1.2 2.6c.4 1 .9 1.4 2.2 1.4h.2l.7 1.6c.4 1 .9 1.4 2.2 1.4h.2l.7 1.6c.4 1 .9 1.4 2.2 1.4h.2l.7 1.6c.4 1 .9 1.4 2.2 1.4h25.9c1 0 1.5-.7 1-1.6L573.3 300H575.1v2c0 .9.9 1 1.8 1h1.2v2.1c0 .9 1 .9 1.9.9h1.1v2.2c0 .9 1.1.8 2 .8h1v2.4c0 .9 1.2.6 2.1.6h1.9v2.5c0 .9.4 1.5 1.3 1.5h1.7v1.6c0 .9.5 1.4 1.4 1.4h1.6v1.7c0 .9.6 1.3 1.5 1.3h1.5v1.9c0 .9.7 1.1 1.6 1.1h66.5c.9 0 1.8-.2 1.8-1.1v-19.3c0-.9-.9-1.6-1.8-1.6H664v-1.5c0-.9-1.1-1.5-2-1.5h-1v-1.7c0-.9-1.2-1.3-2.1-1.3h-.9v-1.8c0-.9-1.3-1.2-2.2-1.2H654v-1.9c0-.9-.4-2.1-1.3-2.1H651v-1.1c0-.9-.6-1.9-1.5-1.9H648v-1.2c0-.3-.1-.6-.2-.8h10c.9 0 1.2-.6 1.2-1.5v-18.8c0-.9-.3-1.7-1.2-1.7H656v-1.5c0-.9-.4-1.5-1.3-1.5H653v-1.6c0-.9-.5-1.4-1.4-1.4H650v-1.7c0-.9-.6-1.3-1.5-1.3H646v-1.8c0-.9.2-2.2-.7-2.2H643v-1c0-.9.1-2-.8-2H640v-1h25.2c.9 0 1.8-.6 1.8-1.5V225L445.1 3.1c0-.9-.9-1.1-1.8-1.1h-66.5c-.9 0-1.6.3-1.6 1.2v32c-.9-1.1-2-2.1-3.1-3-.9-1.1-2-2.1-3.1-3-.9-1.1-2-2.1-3.1-3-.4-.4-.8-.9-1.2-1.3-1.5-2.1-3.2-4-5.2-5.7-.9-1.1-2-2.1-3.1-3-.9-1.1-2-2.1-3.1-3C347 6.2 337.1 2 324.1 2h-41.4c-.9 0-1.6.3-1.6 1.2v29.9c-.7-.7-1.4-1.4-2.2-2.1-.9-1.1-1.9-2.1-3-3-.9-1.1-1.9-2.1-3-3-.8-.9-1.6-1.8-2.5-2.6-1.2-1.7-2.6-3.2-4.2-4.5-.9-1.1-1.9-2.1-3-3-.9-1.1-1.9-2.1-3-3-5.3-6.3-14.4-10-27.6-10h-41.4c-.9 0-1.8.3-1.8 1.2V36c-.6-.6-1.2-1.2-1.8-1.7-1-1.1-2-2.2-3.1-3.1-1-1.1-2-2.2-3.1-3.1-1-1.1-2-2.2-3.1-3.1-1-1.1-2-2.2-3.1-3.1-1-1.1-2-2.2-3.1-3.1-1-1.1-2-2.2-3.1-3.1-1-1.1-2-2.2-3.1-3.1-7.9-8.5-19-12.7-31.7-12.7-17.9 0-32.7 8.4-38.1 25-.4 1.2-.7 2.4-1 3.6-.2-.1-.3-.2-.5-.3.1-.5-.2-1-.7-1.4-.8-.6-1.6-1.2-2.5-1.8.1-.5-.2-1-.7-1.4-.8-.6-1.6-1.2-2.5-1.8.1-.5-.2-1-.7-1.4-.8-.6-1.6-1.2-2.5-1.8.1-.5-.2-1-.7-1.4-.8-.6-1.6-1.2-2.5-1.8.1-.5-.2-1-.7-1.4-.8-.6-1.6-1.2-2.5-1.8.1-.5-.2-1-.7-1.4C69.2 4.2 56-.1 41.9-.1c-23 0-37.8 12.7-37.8 31.7 0 9.9 3.3 17.3 9.5 22.6.9 1.1 2 2.2 3.1 3.1.9 1.1 2 2.2 3.1 3.1.9 1.1 2 2.2 3.1 3.1.9 1.1 2 2.2 3.1 3.1.9 1.1 2 2.2 3.1 3.1.9 1.1 2 2.2 3.1 3.1.9 1.1 2 2.2 3.1 3.1.9 1.1 2 2.2 3.1 3.1.9 1.1 2 2.2 3.1 3.1l.1.1C31.5 82.2 22 77.4 15.9 72c-.6-.6-1.5-.6-2.1.2L.5 88.3c-.7.7-.6 1.8.1 2.4l221.3 221.2zm350-14.9h.2v.4l-.2-.4z"/><path class="st0" d="M.7 90.7c-.7-.6-.9-1.6-.1-2.4L14 72.4c.6-.7 1.5-.7 2.1-.2 6.1 5.4 15.7 10.2 25.9 10.2 9.4 0 14.4-3.9 14.4-9.6 0-4.3-2.8-7.2-12.9-8.5l-5.4-.7c-22-3.1-33.9-13-33.9-32S18.9-.1 41.9-.1C56-.1 69.1 4.2 78.2 11.1c.7.6.9 1.3.3 2.2L67.4 29.7c-.6.7-1.3.9-2.1.4-7.2-4.8-14.8-7.6-22.9-7.6-7.5 0-11.2 3.6-11.2 8.5 0 4.5 3.3 7.3 13 8.5l5.4.7c22.3 3.1 33.6 13 33.6 32.3 0 18.8-14.4 32.6-41.6 32.6-16.6.1-33.3-7-40.9-14.4zM96.1 80.2c-2.4-7.8-3-13.8-3-27.7 0-13.9.6-19.9 3-27.7 5.4-16.6 20.2-25 38.1-25 17.9 0 32.7 8.4 38.1 25 2.5 7.8 3 13.8 3 27.7 0 13.9-.4 19.9-3 27.7-5.4 16.6-20.2 25-38.1 25-18 0-32.8-8.4-38.1-25zm51.1-7.5c1.2-3.4 1.5-8.1 1.5-20.2s-.3-16.7-1.5-20.2c-1.8-5.7-6.4-9-13-9s-11.2 3.3-13 9c-1.2 3.4-1.5 8.1-1.5 20.2s.3 16.7 1.5 20.2c1.8 5.7 6.4 9 13 9s11.2-3.3 13-9zM189.4 3.2c0-.9.6-1.5 1.5-1.5h41.4c22.7 0 33.2 10.9 33.2 27.1 0 10.5-4.8 17.8-12.4 21.8v.3c7.5 2.8 14.2 11.4 14.2 23.2 0 19.9-14.1 29.3-35.4 29.3h-41c-.9 0-1.5-.6-1.5-1.5V3.2zm37.8 39.3c7.9 0 12.1-3.4 12.1-10.5 0-7.2-4-10.5-12.1-10.5h-10.6c-.6 0-.9.3-.9.9v19.1c0 .6.3.9.9.9h10.6zm-10.6 41h12c8.2 0 12.4-4 12.4-11.5 0-7-4.2-11.4-12.4-11.4h-12c-.6 0-.9.3-.9.9v21.1c0 .6.3.9.9.9zM335.7 103.4c-1.3 0-1.8-.4-2.2-1.5l-15.4-34.7h-9.7c-.6 0-.9.3-.9.9v33.8c0 .9-.6 1.5-1.5 1.5h-23.3c-.9 0-1.5-.6-1.5-1.5V3.2c0-.9.6-1.5 1.5-1.5h41.4c23.3 0 36.6 13.6 36.6 32.7 0 12.7-6 23-16.7 28.4l18.7 38.7c.4.9 0 1.8-1 1.8h-26zm-1.3-68.7c0-6.6-4.5-10.8-12-10.8h-14.1c-.6 0-.9.3-.9.9v19.7c0 .6.3.9.9.9h14.1c7.5.1 12-4.1 12-10.7zM375.2 3.2c0-.9.6-1.5 1.5-1.5h66.5c.9 0 1.5.6 1.5 1.5v19.3c0 .9-.6 1.5-1.5 1.5h-40.8c-.6 0-.9.3-.9.9v15.4c0 .6.3.9.9.9h33.5c.9 0 1.5.6 1.5 1.5v18.8c0 .9-.6 1.5-1.5 1.5h-33.5c-.6 0-.9.3-.9.9v16.3c0 .6.3.9.9.9h40.8c.9 0 1.5.6 1.5 1.5v19.3c0 .9-.6 1.5-1.5 1.5h-66.5c-.9 0-1.5-.6-1.5-1.5V3.2z"/></svg>