<svg id="Layer_1" xmlns="http://www.w3.org/2000/svg" width="582" height="269" viewBox="0 0 582 269"><style><![CDATA[
	.st0{fill:#FFCF14;}
	.st1{fill:none;}
	.st2{fill:#D8352F;}
]]></style><path class="st2" d="M145.9 6.5c-.3-.9-.8-1.5-1.9-1.5h-24.4c-1 0-1.6.6-1.9 1.5L103 47.8 71.8 16.7C65 8.1 54.5 3.2 41 3.2c-18.4 0-31.5 8.5-36.9 25.1-2.2 6.9-3 12.4-3 27.5s.7 20.6 3 27.5c2.4 7.4 6.4 13.2 11.6 17.4l305.8 305.8c6.9 8.6 17.4 13 30.6 13 13.5 0 24-4.9 30.9-13.6 0 .7.4 1.1 1.1 1.1h5.6l-1.3 3.8c-.3.9.2 1.2 1 1.2h5.8l-1.5 4.3c-.3.9.1 1.7 1 1.7h24.5c1 0 1.6-.5 1.9-1.4l4.8-15.6h22.2c.3.6.9 1 1.8 1h2.2l1.1 3.6c.3.9.9 1.4 1.9 1.4h2.2l1.1 3.6c.3.9.9 1.4 1.9 1.4h1.9l1.4 4.6c.3.9.9 1.4 1.9 1.4h24.7c.9 0 1.3-.8 1-1.7l-9.1-26c1 .8 2.1 1.6 3.3 2.4-.2.6 0 1.3.6 1.7 1.3 1.2 2.9 2.4 4.7 3.6-.2.6 0 1.3.6 1.7 1.3 1.2 2.9 2.4 4.7 3.6-.2.6 0 1.3.6 1.7 8 7.1 24.4 14.5 41 14.5 19.9 0 33-7.4 38.5-18.7 0 .7.2 1.2 1 1.2h4v3.7c0 .9.4 1.3 1.3 1.3h3.7v3.9c0 .9.7 1.1 1.6 1.1h3.4v4.2c0 .9.9 1.8 1.8 1.8h66.5c.9 0 1.6-.9 1.6-1.8V397c0-.9-.7-1.9-1.6-1.9H656v-3.4c0-.9-1-1.6-1.9-1.6H650v-3.6c0-.9-.3-1.4-1.2-1.4H645v-3.9c0-.9-.6-1.1-1.5-1.1H640v-3h3.3c-.1.6.1 1.2.6 1.6 1.3 1.2 2.9 2.4 4.7 3.6-.2.6 0 1.3.6 1.7 1.3 1.2 2.9 2.4 4.7 3.6-.2.6 0 1.3.6 1.7 1.3 1.2 2.9 2.4 4.7 3.6-.2.6 0 1.3.6 1.7 1.3 1.2 2.9 2.4 4.7 3.6-.2.6 0 1.3.6 1.7 1.3 1.2 2.9 2.4 4.7 3.6-.2.6 0 1.3.6 1.7 8 7.1 24.4 14.5 41 14.5 27.2 0 41.6-13.8 41.6-32.6 0-10.9-3.6-18.7-10.7-24.1-1.5-2-3.2-3.7-5.3-5.3-1.5-2-3.2-3.7-5.3-5.3-1.5-2-3.2-3.7-5.3-5.3-1.5-2-3.2-3.7-5.3-5.3-1.2-1.7-2.7-3.2-4.4-4.6 6.4.9 12.4 3.6 18.3 7.3.7.5 1.5.3 2.1-.4l11.2-16.3c.6-.9.5-1.7-.3-2.2L437.1 14.4c-9-7-22.3-11.2-36.3-11.2-17 0-29.5 7-34.9 18.2l-15.6-15c0-.9-.8-1.5-1.7-1.5H282c-.9 0-1.8.6-1.8 1.5V33l-16.9-18.4c-9-7-22.3-11.3-36.3-11.3-23 0-37.8 12.7-37.8 31.7L145.9 6.5z"/><path class="st0" d="M.8 55.6c0-15.1.7-20.6 3-27.5C9.2 11.5 22.3 2.9 40.7 2.9c17.9 0 30.8 8.5 36.5 23.2.4 1 .3 1.6-.7 2.1l-19.9 8.7c-1 .4-1.6.1-2.1-.9-2.8-6-6.4-9.6-13.3-9.6-6.4 0-10.5 3.1-12.3 8.8-1 3.1-1.5 6.3-1.5 20.3s.4 17.2 1.5 20.3c1.8 5.7 5.8 8.8 12.3 8.8 6.9 0 10.5-3.6 13.3-9.6.4-1 1-1.3 2.1-.9l19.9 8.7c1 .4 1.2 1 .7 2.1-5.7 14.7-18.5 23.2-36.5 23.2-18.4 0-31.5-8.5-36.9-25.1-2.3-6.8-3-12.3-3-27.4zM117.4 6.2c.3-.9.9-1.5 1.9-1.5h24.4c1 0 1.6.6 1.9 1.5l34.4 98.7c.3.9-.1 1.5-1 1.5h-24.7c-1 0-1.6-.6-1.9-1.5l-4.8-15.7h-33l-4.8 15.7c-.3.9-.9 1.5-1.9 1.5H83.3c-.9 0-1.3-.6-1-1.5l35.1-98.7zM141 67.4l-9.4-31.7h-.4l-9.9 31.7H141zM185.4 93.7c-.7-.6-.9-1.6-.1-2.4l13.5-15.8c.6-.7 1.5-.7 2.1-.2 6.1 5.4 15.7 10.2 25.9 10.2 9.4 0 14.4-3.9 14.4-9.6 0-4.3-2.8-7.2-12.9-8.5l-5.4-.7c-22-3.1-33.9-13-33.9-32S203.8 3 226.8 3c14.1 0 27.2 4.3 36.3 11.2.7.6.9 1.3.3 2.2l-11.2 16.3c-.6.7-1.3.9-2.1.4-7.2-4.8-14.8-7.6-22.9-7.6-7.5 0-11.2 3.6-11.2 8.5 0 4.5 3.3 7.3 13 8.5l5.4.7c22.3 3.1 33.6 13 33.6 32.3 0 18.8-14.4 32.6-41.6 32.6-16.6.1-33.3-6.9-41-14.4zM280.2 6.2c0-.9.6-1.5 1.5-1.5h66.5c.9 0 1.5.6 1.5 1.5v19.3c0 .9-.6 1.5-1.5 1.5h-40.8c-.6 0-.9.3-.9.9v15.4c0 .6.3.9.9.9h33.5c.9 0 1.5.6 1.5 1.5v18.8c0 .9-.6 1.5-1.5 1.5h-33.5c-.6 0-.9.3-.9.9v16.3c0 .6.3.9.9.9h40.8c.9 0 1.5.6 1.5 1.5v19.3c0 .9-.6 1.5-1.5 1.5h-66.5c-.9 0-1.5-.6-1.5-1.5V6.2zM359.2 93.7c-.7-.6-.9-1.6-.1-2.4l13.5-15.8c.6-.7 1.5-.7 2.1-.2 6.1 5.4 15.7 10.2 25.9 10.2 9.4 0 14.4-3.9 14.4-9.6 0-4.3-2.8-7.2-12.9-8.5l-5.4-.7c-22-3.1-33.9-13-33.9-32S377.6 3 400.6 3c14.1 0 27.2 4.3 36.3 11.2.7.6.9 1.3.3 2.2L426 32.7c-.6.7-1.3.9-2.1.4-7.2-4.8-14.8-7.6-22.9-7.6-7.5 0-11.2 3.6-11.2 8.5 0 4.5 3.3 7.3 13 8.5l5.4.7c22.3 3.1 33.6 13 33.6 32.3 0 18.8-14.4 32.6-41.6 32.6-16.6.1-33.4-6.9-41-14.4z"/><path class="st1" d="M-15.8-31h483v255h-483z"/></svg>