<svg id="Layer_1" xmlns="http://www.w3.org/2000/svg" width="916.7" height="293" viewBox="0 0 916.7 293"><style><![CDATA[
	.st0{fill:#623180;}
	.st1{fill:none;}
	.st2{fill:#D8352F;}
]]></style><path class="st0" d="M943.7 316S614.1 35.5 606.1 21s-22-19.9-36.2-19.9c-14.2 0-32.1 12.9-32.1 12.9L522.2 3.3 441.7 3v22h28v39.5L412.2 4.2c-.3-.9-1.1-1.2-2.1-1.2h-24.2c-1.1 0-1.7.8-2 1.7l-7.7 21.6L355.7 4c0-.3-.3-.5-.4-.6 0-.1-.3-.2-.3-.2-.3-.3-.6-.2-1-.2h-78.3c-.6 0-1.3.6-1.3 1.4v11.4L263.7 4c0-.9-.2-1-1.1-1h-21c-.9 0-1.9.1-1.9 1v31.7l-.7-1.5-30-29.5c-.5-1-1.8-1.7-2.8-1.7h-22c-.9 0-1.5.1-1.5 1v33.5c-1.5-1.7-3-3.2-4.8-4.5-1.8-2.3-3.8-4.3-6-6-1.8-2.3-3.8-4.3-6-6-1.8-2.3-3.8-4.3-6-6C152.6 5.5 140.8.8 127.3.8c-18 0-32.8 8.4-38.2 25-.5 1.7-1 3.4-1.3 5-1.4-1.6-2.9-3-4.5-4.3-1.8-2.2-3.8-4.2-6-6-1.7-2.1-3.6-4-5.7-5.7C64.7 5.8 53.9.7 40 .7 21.6.7 8.4 9.2 3 25.9.8 32.8 0 38.3 0 53.5s.8 20.7 3 27.6c2.5 7.6 6.6 13.5 12 17.7 1.8 2.3 3.8 4.3 6 6 1.8 2.3 3.8 4.3 6 6 1.8 2.3 3.8 4.3 6 6 1.8 2.3 3.8 4.3 6 6 1.8 2.3 3.8 4.3 6 6 1.8 2.3 3.8 4.3 6 6 1.8 2.3 3.8 4.3 6 6 1.8 2.3 3.8 4.3 6 6 1.8 2.3 3.8 4.3 6 6 1.8 2.3 3.8 4.3 6 6 1.8 2.3 3.8 4.3 6 6 1.8 2.3 3.8 4.3 6 6 1.8 2.3 3.8 4.3 6 6 1.8 2.3 3.8 4.3 6 6 1.8 2.3 3.8 4.3 6 6 1.8 2.3 3.8 4.3 6 6 1.8 2.3 3.8 4.3 6 6 1.8 2.3 3.8 4.3 6 6 1.8 2.3 3.8 4.3 6 6 1.8 2.3 3.8 4.3 6 6 1.8 2.3 3.8 4.3 6 6 1.8 2.3 3.8 4.3 6 6 1.8 2.3 81.5 76.6 83.7 78.3"/><path class="st2" d="M0 53c0-15.2.8-20.8 3-27.7C8.4 8.6 21.7 0 40.2 0c18 0 31 8.6 36.7 23.3.5 1.1.3 1.7-.8 2.1l-20 8.7c-1.1.5-1.7.2-2.1-.9-2.9-6-6.5-9.6-13.4-9.6-6.5 0-10.5 3.2-12.3 8.9-1.1 3.2-1.5 6.3-1.5 20.5s.5 17.3 1.5 20.5c1.8 5.7 5.9 8.9 12.3 8.9 6.9 0 10.5-3.6 13.4-9.6.5-1.1 1.1-1.4 2.1-.9l20 8.7c1.1.5 1.2 1.1.8 2.1C71.2 97.4 58.2 106 40.2 106c-18.5 0-31.7-8.6-37.1-25.3C.8 73.7 0 68.1 0 53zM88.7 80.8c-2.4-7.8-3-13.8-3-27.8s.6-20 3-27.8C94.2 8.4 109.1 0 127.1 0s32.9 8.4 38.4 25.1c2.6 7.8 3 13.8 3 27.8s-.5 20-3 27.8c-5.4 16.7-20.3 25.1-38.4 25.1-18 .1-32.9-8.3-38.4-25zm51.5-7.5c1.2-3.5 1.5-8.1 1.5-20.3 0-12.2-.3-16.8-1.5-20.3-1.8-5.7-6.5-9-13.1-9s-11.3 3.3-13.1 9c-1.2 3.5-1.5 8.1-1.5 20.3 0 12.2.3 16.8 1.5 20.3 1.8 5.7 6.5 9 13.1 9s11.3-3.3 13.1-9zM182.6 4.3c0-.9.6-1.5 1.5-1.5h22.1c1.1 0 2.1.5 2.6 1.5l30.8 57.9h.6V4.3c0-.9.6-1.5 1.5-1.5h21.1c.9 0 1.5.6 1.5 1.5v99.3c0 .9-.6 1.5-1.5 1.5h-22.1c-1.1 0-2.1-.5-2.6-1.5l-30.5-57.8h-.9v57.8c0 .9-.6 1.5-1.5 1.5h-21.1c-.9 0-1.5-.6-1.5-1.5V4.3zM303.4 105.2h-.5c-.3 0-.5-.2-.8-.5-.2-.2-.3-.3-.3-.6V27.3c0-.5-.3-.8-.8-.9h-25.6c-.3 0-.5-.2-.6-.3l-.1-.2s0-.2-.2-.2c-.2-.3-.2-.6-.2-.9V4.4c0-.8.5-1.4 1.1-1.5h79c.5 0 .8.2 1.1.5 0 0 .2.2.2.3.2.2.3.5.3.8V25c0 .5-.2.9-.5 1.2-.2.2-.5.3-.8.3H329.3c-.3 0-.5 0-.6.1-.2 0-.2.2-.3.3v77.4c-.2.5-.3.6-.8.9-.2.2-.5.2-.8.2h-23.4zM384 4.4c.3-.9.9-1.5 2-1.5h24.5c1.1 0 1.7.6 2 1.5l34.6 99.3c.3.9-.2 1.5-1.1 1.5h-24.8c-1.1 0-1.7-.6-2-1.5l-4.8-15.8h-33.2l-4.8 15.8c-.3.9-.9 1.5-2 1.5h-24.7c-.9 0-1.4-.6-1.1-1.5L384 4.4zM407.7 66l-9.5-31.9h-.5L387.9 66h19.8zM470.1 105.1h-.5c-.3 0-.5-.2-.8-.5-.1-.2-.3-.3-.3-.6V27.2c0-.5-.3-.8-.8-.9H442c-.3 0-.5-.2-.6-.3l-.2-.2s0-.2-.2-.2c-.2-.3-.2-.6-.2-.9V4.3c0-.8.5-1.4 1.1-1.5h79c.5 0 .8.2 1.1.5 0 0 .2.2.2.3.2.2.3.5.3.8v20.5c0 .5-.2.9-.5 1.2-.2.2-.5.3-.8.3H496c-.3 0-.5 0-.6.1-.2 0-.2.2-.3.3v77.4c-.2.5-.3.6-.8.9-.1.2-.5.2-.8.2h-23.4zM531.5 81.8c-2.4-7.8-3-13.8-3-27.8s.6-20 3-27.8C536.9 9.4 551.8 1 569.8 1c18 0 32.9 8.4 38.4 25.1 2.6 7.8 3 13.8 3 27.8s-.5 20-3 27.8c-5.4 16.7-20.3 25.1-38.4 25.1-18 .1-32.9-8.3-38.3-25zm51.4-7.5c1.2-3.5 1.5-8.1 1.5-20.3 0-12.2-.3-16.8-1.5-20.3-1.8-5.7-6.5-9-13.1-9s-11.3 3.3-13.1 9c-1.2 3.5-1.5 8.1-1.5 20.3 0 12.2.3 16.8 1.5 20.3 1.8 5.7 6.5 9 13.1 9s11.3-3.3 13.1-9z"/><path class="st1" d="M.7-29h856v138H.7z"/></svg>