<?xml version="1.0" encoding="utf-8"?>
<!-- Generator: Adobe Illustrator 16.0.0, SVG Export Plug-In . SVG Version: 6.00 Build 0)  -->
<!DOCTYPE svg PUBLIC "-//W3C//DTD SVG 1.1//EN" "http://www.w3.org/Graphics/SVG/1.1/DTD/svg11.dtd">
<svg version="1.1" id="Camada_1" xmlns="http://www.w3.org/2000/svg" xmlns:xlink="http://www.w3.org/1999/xlink" x="0px" y="0px"
	 width="35px" height="35px" viewBox="0 0 35 35" enable-background="new 0 0 35 35" xml:space="preserve">
<g>
	<g>
		<path fill="#FFFFFF" d="M17.5,2.196c8.438,0,15.304,6.865,15.304,15.304S25.938,32.804,17.5,32.804S2.196,25.938,2.196,17.5
			S9.062,2.196,17.5,2.196 M17.5,0.196C7.943,0.196,0.196,7.943,0.196,17.5S7.943,34.804,17.5,34.804S34.804,27.057,34.804,17.5
			S27.057,0.196,17.5,0.196L17.5,0.196z"/>
	</g>
	<path fill="none" stroke="#FFFFFF" stroke-width="2" stroke-linecap="round" stroke-linejoin="round" stroke-miterlimit="10" d="
		M24.65,19.305c0,3.949-3.201,7.15-7.15,7.15s-7.15-3.201-7.15-7.15"/>
	<circle fill="#FFFFFF" cx="9.875" cy="12.079" r="1.525"/>
	<circle fill="#FFFFFF" cx="24.875" cy="12.079" r="1.525"/>
</g>
</svg>
