<svg width="30" height="33" xmlns="http://www.w3.org/2000/svg">
 <!-- Created with SVG-edit - http://svg-edit.googlecode.com/ -->
 <g>
  <title>Layer 1</title>
  <g id="svg_42">
   <g id="svg_11">
    <g id="svg_13">
     <path id="svg_14" d="m29.3678,12.31942l-9.37006,-11.39939l0.61661,3.68891l-0.00489,12.70382l-19.29818,2.52595l10.62864,9.40423c9.0237,-0.75805 16.42297,-7.81979 17.42788,-16.92351z" fill="#843834"/>
    </g>
    <g id="svg_15">
     <g id="svg_16">
      <path id="svg_17" d="m14.76342,5.3992c0.00098,0 0.00195,0.00098 0.00195,0.00098c1.33955,1.2098 2.18153,2.95522 2.18153,4.89381c0,3.64304 -2.97765,6.60704 -6.63632,6.60704c-3.65768,0 -6.63533,-2.964 -6.63533,-6.60704c0,-1.93763 0.84198,-3.68302 2.18152,-4.89381c0.01075,-0.00976 0.02147,-0.01951 0.03221,-0.02829l-5.84508,-0.01853l-0.01755,4.86356v0.03903l-0.02342,6.99244c-0.00293,0.68 0.18245,1.30636 0.49076,1.79322c0.21855,0.34439 0.49758,0.61953 0.81661,0.79612c0.25659,0.14245 0.53855,0.22243 0.83319,0.22341l16.30396,0.05074c1.18638,0.0039 2.15519,-1.25175 2.16104,-2.79912l0.02341,-6.99242v-0.03903l0.01756,-4.86456l-5.88604,-0.01755z" fill="#FFFFFF"/>
     </g>
     <path id="svg_18" d="m10.31058,4.5455c-3.20498,0 -5.8031,2.57375 -5.8031,5.74849s2.59813,5.74753 5.8031,5.74753s5.80312,-2.57279 5.80312,-5.74753s-2.59813,-5.74849 -5.80312,-5.74849zm0,10.42572c-2.60788,0 -4.72307,-2.09373 -4.72307,-4.67723s2.11519,-4.67819 4.72307,-4.67819c2.60887,0 4.7231,2.09373 4.7231,4.67819s-2.11422,4.67723 -4.7231,4.67723z" fill="#FFFFFF"/>
     <path id="svg_19" d="m19.99774,0.92101c-0.15708,-0.22734 -0.33855,-0.42148 -0.53758,-0.57077c-0.29855,-0.22342 -0.6371,-0.35025 -0.99613,-0.35025h-16.30395c-1.18639,0 -2.1513,1.3776 -2.1513,3.07132v1.5386h6.92413c0.99028,-0.58636 2.14544,-0.92297 3.37864,-0.92297c1.23419,0 2.38935,0.33757 3.37962,0.92297h6.92413v-1.5386c-0.00097,-0.8371 -0.2361,-1.59614 -0.61757,-2.15031zm-1.78153,2.18056c0,0.16779 -0.13659,0.30438 -0.3044,0.30438h-1.51811c-0.16781,0 -0.30441,-0.13659 -0.30441,-0.30438v-1.5942c0,-0.16782 0.1366,-0.30441 0.30441,-0.30441h1.51908c0.16782,0 0.30441,0.13659 0.30441,0.30441v1.5942l-0.00098,0z" fill="#FFFFFF"/>
    </g>
   </g>
  </g>
 </g>
</svg>