<?xml version="1.0" encoding="utf-8"?>
<!-- Generator: Adobe Illustrator 16.0.0, SVG Export Plug-In . SVG Version: 6.00 Build 0)  -->
<!DOCTYPE svg PUBLIC "-//W3C//DTD SVG 1.1//EN" "http://www.w3.org/Graphics/SVG/1.1/DTD/svg11.dtd">
<svg version="1.1" id="Camada_1" xmlns="http://www.w3.org/2000/svg" xmlns:xlink="http://www.w3.org/1999/xlink" x="0px" y="0px"
	 width="33px" height="30px" viewBox="0 0 33 30" enable-background="new 0 0 33 30" xml:space="preserve">
<g>
	<g>
		<path fill="#843832" d="M32.537,11.776L23.106,1.62c0,0-1.836-0.098-2.003,0c-0.167,0.097-3.468,0.303-3.468,0.303l-1.65,1.114
			l0.124,3.38c0,0,1.279,4.253,1.279,4.459c0,0.207-1.032,2.889-1.279,2.971c-0.248,0.083-3.013,0.66-3.013,0.66l-5.157-0.618
			l-3.205,1.39l11.717,14.637C24.979,27.849,31.493,20.659,32.537,11.776z"/>
	</g>
	<g>
		<path fill="#FFFFFF" d="M6.372,5.857h-5.86C0.622,6.382,0.89,6.8,1.386,6.977h4.19C6.029,6.737,6.233,6.31,6.372,5.857z"/>
		<path fill="#FFFFFF" d="M19.469,6.977h4.19c0.495-0.177,0.763-0.594,0.873-1.119h-5.86C18.811,6.31,19.015,6.737,19.469,6.977z"/>
		<path fill="#FFFFFF" d="M16.464,5.068v-1.23c0.681,0.103,1.253,0.236,1.512,0.412c0.206,0.139,0.329,0.364,0.421,0.63h6.185
			c-0.082-1.117-0.558-2.344-0.979-2.84c-1.815-2.142-11.079-1.951-11.079-1.951S3.258-0.102,1.442,2.04
			C1.021,2.536,0.546,3.763,0.463,4.88h6.185C6.74,4.614,6.863,4.389,7.069,4.25C7.328,4.074,7.9,3.94,8.58,3.838v1.23L6.926,6.96
			l-2.411,5.941v1.205v0.709c0,0.38,0.309,0.688,0.689,0.688h7.318h7.319c0.38,0,0.688-0.308,0.688-0.688v-0.709v-1.205l-2.41-5.941
			L16.464,5.068z M15.178,3.688V4.88H9.866V3.688C11.217,3.565,13.827,3.565,15.178,3.688z M12.522,12.839
			c-1.786,0-3.234-1.447-3.234-3.233s1.447-3.233,3.234-3.233c1.786,0,3.234,1.447,3.234,3.233S14.308,12.839,12.522,12.839z"/>
	</g>
</g>
</svg>
