<?xml version="1.0" encoding="utf-8"?>
<!-- Generator: Adobe Illustrator 16.0.0, SVG Export Plug-In . SVG Version: 6.00 Build 0)  -->
<!DOCTYPE svg PUBLIC "-//W3C//DTD SVG 1.1//EN" "http://www.w3.org/Graphics/SVG/1.1/DTD/svg11.dtd">
<svg version="1.1" id="Camada_1" xmlns="http://www.w3.org/2000/svg" xmlns:xlink="http://www.w3.org/1999/xlink" x="0px" y="0px"
	 width="33px" height="30px" viewBox="0 0 33 30" enable-background="new 0 0 33 30" xml:space="preserve">
<g>
	<g>
		<g>
			<g>
				<g>
					<g>
						<path fill="#FFFFFF" d="M20.842,0.46H2.035c-0.899,0-1.636,0.736-1.636,1.637v3.139c0,0.899,0,2.371,0,3.271v5.038
							c0,0.898,0.736,1.635,1.636,1.635h11.447l3.271,3.271v-3.271h4.089c0.899,0,1.636-0.736,1.636-1.635V8.506
							c0-0.899,0-2.371,0-3.271V2.097C22.478,1.196,21.741,0.46,20.842,0.46z"/>
					</g>
				</g>
			</g>
		</g>
	</g>
	<g>
		<path fill="#843832" d="M21.997,0.942c0.296,0.295,0.48,0.704,0.48,1.154v3.139c0,0.899,0,2.371,0,3.271v5.038
			c0,0.898-0.736,1.635-1.636,1.635h-4.089v3.271l-3.271-3.271H7.759H2.035c-0.45,0-0.858-0.184-1.155-0.48l3.68,3.68L15.722,29.54
			c8.821-1.764,15.672-8.985,16.879-17.994L21.997,0.942z"/>
	</g>
</g>
</svg>
