<?xml version="1.0" encoding="utf-8"?>
<!-- Generator: Adobe Illustrator 16.0.0, SVG Export Plug-In . SVG Version: 6.00 Build 0)  -->
<!DOCTYPE svg PUBLIC "-//W3C//DTD SVG 1.1//EN" "http://www.w3.org/Graphics/SVG/1.1/DTD/svg11.dtd">
<svg version="1.1" id="Camada_1" xmlns="http://www.w3.org/2000/svg" xmlns:xlink="http://www.w3.org/1999/xlink" x="0px" y="0px"
	 width="34px" height="42px" viewBox="0 0 34 42" enable-background="new 0 0 34 42" xml:space="preserve">
<g>
	<path fill="#FFFFFF" d="M22.729,32.857H11.838c-0.616,0-0.915-0.426-0.916-0.916c0.001-0.49,0.3-0.916,0.916-0.916h10.891
		c0.617,0,0.916,0.426,0.916,0.916S23.346,32.857,22.729,32.857L22.729,32.857z M17.488,0.196c7.24,0,13.09,5.85,13.09,13.064
		c0,3.686-1.545,7.034-4.012,9.408c-0.773,0.932-1.229,2.119-1.377,5.479c-0.037,0.809-0.633,1.18-1.26,1.152
		c-0.629-0.027-1.189-0.453-1.153-1.26c0.159-3.561,0.694-5.457,2.036-7.031c2.033-1.938,3.35-4.722,3.35-7.748
		c0-5.882-4.768-10.648-10.678-10.649C11.604,2.612,6.838,7.378,6.838,13.26c0,3.025,1.315,5.81,3.348,7.747
		c1.342,1.575,1.879,3.471,2.037,7.03c0.036,0.809-0.524,1.234-1.152,1.26c-0.627,0.027-1.225-0.344-1.26-1.15
		c-0.15-3.359-0.604-4.547-1.379-5.479c-2.467-2.374-4.01-5.722-4.01-9.408C4.422,6.045,10.273,0.196,17.488,0.196L17.488,0.196z
		 M22.729,35.869H11.838c-0.617,0.002-0.915-0.426-0.916-0.916c0-0.49,0.299-0.916,0.916-0.916h10.891
		c0.617,0,0.916,0.426,0.916,0.916S23.346,35.869,22.729,35.869L22.729,35.869z M21.553,38.883h-8.537
		c-0.619,0-0.917-0.426-0.918-0.916c0-0.49,0.299-0.916,0.918-0.916h8.537c0.616,0,0.916,0.426,0.916,0.916
		S22.17,38.883,21.553,38.883L21.553,38.883z M20.246,40.119c-0.458,0.986-1.62,1.686-2.981,1.686c-1.36,0-2.522-0.701-2.981-1.686
		H20.246L20.246,40.119z"/>
</g>
</svg>
