<?xml version="1.0" encoding="utf-8"?>
<!-- Generator: Adobe Illustrator 16.0.0, SVG Export Plug-In . SVG Version: 6.00 Build 0)  -->
<!DOCTYPE svg PUBLIC "-//W3C//DTD SVG 1.1//EN" "http://www.w3.org/Graphics/SVG/1.1/DTD/svg11.dtd">
<svg version="1.1" id="Camada_1" xmlns="http://www.w3.org/2000/svg" xmlns:xlink="http://www.w3.org/1999/xlink" x="0px" y="0px"
	 width="37.922px" height="34.644px" viewBox="0 0 37.922 34.644" enable-background="new 0 0 37.922 34.644" xml:space="preserve">
<g>
	<g>
		<g>
			<g>
				<g>
					<g>
						<path fill="#FFFFFF" d="M33.43,2.197c1.38,0,2.51,1.13,2.51,2.511v4.816c0,1.381,0,3.639,0,5.02v7.729
							c0,1.381-1.13,2.51-2.51,2.51h-6.274v5.02l-5.019-5.02H4.569c-1.38,0-2.509-1.129-2.509-2.51v-7.729c0-1.381,0-3.639,0-5.02
							V4.708c0-1.381,1.129-2.511,2.509-2.511H33.43 M33.43,0.197H4.569c-2.486,0-4.509,2.023-4.509,4.511v4.816v5.02v7.729
							c0,2.486,2.022,4.51,4.509,4.51h16.739l4.433,4.434l3.414,3.415v-4.829v-3.02h4.274c2.486,0,4.51-2.023,4.51-4.51v-7.729
							v-5.02V4.708C37.939,2.221,35.916,0.197,33.43,0.197L33.43,0.197z"/>
					</g>
				</g>
			</g>
		</g>
	</g>
</g>
</svg>
