<?xml version="1.0" encoding="utf-8"?>
<!-- Generator: Adobe Illustrator 16.0.0, SVG Export Plug-In . SVG Version: 6.00 Build 0)  -->
<!DOCTYPE svg PUBLIC "-//W3C//DTD SVG 1.1//EN" "http://www.w3.org/Graphics/SVG/1.1/DTD/svg11.dtd">
<svg version="1.1" id="Camada_1" xmlns="http://www.w3.org/2000/svg" xmlns:xlink="http://www.w3.org/1999/xlink" x="0px" y="0px"
	 width="190px" height="190px" viewBox="0 0 190 190" enable-background="new 0 0 190 190" xml:space="preserve">
<g>
	<g>
		<g>
			<path fill="#95B84F" d="M189.76,94.334c0,52.057-42.203,94.26-94.262,94.26c-52.063,0-94.258-42.203-94.258-94.26
				c0-52.062,42.194-94.26,94.258-94.26C147.557,0.074,189.76,42.272,189.76,94.334z"/>
		</g>
	</g>
	<g>
		<path fill="#39653B" d="M48.267,120.953l16.317,16.315l49.488,49.489c39.113-7.819,69.484-39.839,74.836-79.781l-47.012-47.013"/>
	</g>
	<path fill="#FFFFFF" d="M72.187,143.971c-0.697,0-1.394-0.266-1.925-0.797L25.576,98.489c-1.354-1.352-3.281-4.442-1.007-9.934
		c3.059-7.377,12.918-16.388,20.069-16.388c2.057,0,3.854,0.712,5.2,2.059L72.185,96.57l46.842-46.842
		c1.348-1.345,3.143-2.058,5.204-2.058c7.15,0,17.011,9.011,20.065,16.388c2.276,5.492,0.347,8.581-1.008,9.933l-69.179,69.183
		C73.578,143.705,72.882,143.971,72.187,143.971z"/>
</g>
</svg>
