<?xml version="1.0" encoding="utf-8"?>
<!-- Generator: Adobe Illustrator 16.0.0, SVG Export Plug-In . SVG Version: 6.00 Build 0)  -->
<!DOCTYPE svg PUBLIC "-//W3C//DTD SVG 1.1//EN" "http://www.w3.org/Graphics/SVG/1.1/DTD/svg11.dtd">
<svg version="1.1" id="Camada_1" xmlns="http://www.w3.org/2000/svg" xmlns:xlink="http://www.w3.org/1999/xlink" x="0px" y="0px"
	 width="25px" height="25px" viewBox="0 0 25 25" enable-background="new 0 0 25 25" xml:space="preserve">
<g>
	<path fill="#761758" d="M11.839,20.01c-4.142,0-7.512-3.369-7.512-7.51c0-4.141,3.37-7.51,7.512-7.51
		c4.141,0,7.509,3.369,7.509,7.51C19.348,16.641,15.979,20.01,11.839,20.01z"/>
	<path fill="#E0D747" d="M11.839,7.99c2.486,0,4.509,2.023,4.509,4.51c0,2.486-2.022,4.51-4.509,4.51
		c-2.488,0-4.512-2.023-4.512-4.51C7.327,10.013,9.351,7.99,11.839,7.99 M11.839,1.99C6.031,1.99,1.327,6.695,1.327,12.5
		c0,5.805,4.704,10.51,10.512,10.51c5.804,0,10.509-4.705,10.509-10.51C22.348,6.695,17.643,1.99,11.839,1.99L11.839,1.99z"/>
</g>
</svg>
