<?xml version="1.0" encoding="utf-8"?>
<!-- Generator: Adobe Illustrator 16.0.0, SVG Export Plug-In . SVG Version: 6.00 Build 0)  -->
<!DOCTYPE svg PUBLIC "-//W3C//DTD SVG 1.1//EN" "http://www.w3.org/Graphics/SVG/1.1/DTD/svg11.dtd">
<svg version="1.1" id="Camada_1" xmlns="http://www.w3.org/2000/svg" xmlns:xlink="http://www.w3.org/1999/xlink" x="0px" y="0px"
	 width="17.436px" height="17.438px" viewBox="0 0 17.436 17.438" enable-background="new 0 0 17.436 17.438" xml:space="preserve">
<g>
	<path fill="#553377" d="M6.223,6.375c0.152,0,0.23-0.076,0.23-0.23l-0.001-5.76C6.452,0.154,6.605,0,6.836,0H10.6
		c0.23,0,0.384,0.154,0.384,0.385v5.76c0,0.154,0.077,0.23,0.23,0.23h5.839c0.229,0,0.383,0.154,0.383,0.385v3.918
		c0,0.23-0.153,0.383-0.383,0.383h-5.838c-0.154,0-0.23,0.078-0.23,0.23v5.762c0,0.23-0.153,0.385-0.385,0.385H6.837
		c-0.231,0-0.384-0.154-0.384-0.385v-5.762c0-0.152-0.077-0.23-0.23-0.23H0.385C0.154,11.061,0,10.908,0,10.678V6.76
		c0-0.23,0.154-0.385,0.385-0.385H6.223z"/>
</g>
</svg>
