<svg width="37" height="40" xmlns="http://www.w3.org/2000/svg" xmlns:xlink="http://www.w3.org/1999/xlink">
 <!-- Created with SVG-edit - http://svg-edit.googlecode.com/ -->
 <defs>
  <svg id="svg_1" height="33" width="30">
   <!-- Created with SVG-edit - http://svg-edit.googlecode.com/ -->
   <g>
    <title>Layer 1</title>
    <g id="svg_5">
     <g id="svg_7">
      <path fill="#843834" d="m25.69855,14.1715l-14.51296,-14.17047l-4.4804,3.81287c0,0 -3.42924,6.10142 -3.08569,6.61569c0.34252,0.51429 -0.17178,12.1586 -0.17178,12.1586l-1.0296,1.38239l8.75612,7.44473c7.77594,-2.232 13.63459,-8.98655 14.52431,-17.24381z" id="svg_8"/>
     </g>
     <g id="svg_9">
      <path fill="#FFFFFF" d="m2.41812,4.64189v3.30065h-2.41812v4.03401h2.41812v11.993h4.96487v-11.99197h3.33254c0,0 0.31268,-1.93472 0.46491,-4.05047h-3.77791v-2.76065c0,-0.41143 0.53999,-0.96582 1.0769,-0.96582h2.70616v-4.20064h-3.6802c-5.20966,0.00103 -5.08727,4.03916 -5.08727,4.64189l0,0zm0,0" id="svg_10"/>
     </g>
    </g>
   </g>
  </svg>
 </defs>
 <g>
  <title>Layer 1</title>
  <use x="0.03082" y="1.49472" transform="matrix(1.2153287423637162,0,0,1.2153287423637162,-0.037455176662074686,-1.8165781253086204) " id="svg_2" xlink:href="#svg_1"/>
 </g>
</svg>