<?xml version="1.0" encoding="utf-8"?>
<!-- Generator: Adobe Illustrator 16.0.0, SVG Export Plug-In . SVG Version: 6.00 Build 0)  -->
<!DOCTYPE svg PUBLIC "-//W3C//DTD SVG 1.1//EN" "http://www.w3.org/Graphics/SVG/1.1/DTD/svg11.dtd">
<svg version="1.1" id="Layer_1" xmlns="http://www.w3.org/2000/svg" xmlns:xlink="http://www.w3.org/1999/xlink" x="0px" y="0px"
	 width="48.2px" height="33.1px" viewBox="0 0 48.2 33.1" style="enable-background:new 0 0 48.2 33.1;" xml:space="preserve">
<style type="text/css">
<![CDATA[
	.st0{fill:none;stroke:#FFFFFF;stroke-width:2;stroke-miterlimit:10;}
]]>
</style>
<g>
	<path class="st0" d="M30.4,1.6C30.4,1.6,30.4,1.6,30.4,1.6C30.4,1.6,30.4,1.6,30.4,1.6z"/>
	<ellipse class="st0" cx="29.3" cy="14.2" rx="3.4" ry="13.2"/>
	<path class="st0" d="M7.1,14.3c0,3.3,0.6,5.9,1.3,5.9c11.7,0,16.8,4.7,19.6,6.8c0.9,0.6,1.3,0.6,1.3,0.6c-1.9,0-3.4-5.9-3.4-13.2
		c0-6.6,1.2-12,2.8-13.1c-0.2,0.1-0.5,0.2-0.8,0.5c-2.8,2-7.9,6.7-19.6,6.7v0C7.7,8.3,7.1,11,7.1,14.3z"/>
	<path class="st0" d="M29.3,1C29.3,1,29.3,1,29.3,1C29.2,1,29.3,1,29.3,1z"/>
	<path class="st0" d="M1.1,14.2c0,3.1,1.6,5.6,3.7,5.6h3v0c-0.4-1.1-0.7-3.2-0.7-5.6c0-2.4,0.3-4.5,0.7-5.6h-3
		C2.7,8.6,1.1,11.2,1.1,14.2z"/>
	<path class="st0" d="M10.3,31.9c1.1,0.7,3.6-0.7,3.6-0.7s1-0.5,1-1.2c0-0.9-1-0.9-1-1.9c0-0.9,1-0.9,1-1.9c0-0.9-1-0.9-1-1.9
		c0-0.9,1-0.9,1-1.9c0-0.9-1-0.9-1-1.9l-3.7-0.5C10.2,20.3,8.7,31,10.3,31.9z"/>
	<line class="st0" x1="48.2" y1="14.7" x2="37.7" y2="14.7"/>
	<line class="st0" x1="41.5" y1="3.9" x2="37.5" y2="7.4"/>
	<line class="st0" x1="41.3" y1="24.9" x2="37.8" y2="20.9"/>
</g>
</svg>
