<?xml version="1.0" encoding="utf-8"?>
<!-- Generator: Adobe Illustrator 16.0.0, SVG Export Plug-In . SVG Version: 6.00 Build 0)  -->
<!DOCTYPE svg PUBLIC "-//W3C//DTD SVG 1.1//EN" "http://www.w3.org/Graphics/SVG/1.1/DTD/svg11.dtd">
<svg version="1.1" id="Camada_1" xmlns="http://www.w3.org/2000/svg" xmlns:xlink="http://www.w3.org/1999/xlink" x="0px" y="0px"
	 width="236px" height="150px" viewBox="0 0 236 150" enable-background="new 0 0 236 150" xml:space="preserve">
<polygon fill="#623180" points="0.847,0 152.761,150 236,150 236,135.643 211,111.95 211,87.58 197.173,77.427 197.613,75.542
	198.826,71.621 201.73,62.838 201.713,63.306 220.454,81 236,81 236,79.246 214.047,19.929 193.1,0 "/>
<path fill="#d8352f" d="M195.691,81l3.048-9.285l4.259-12.738l5.574-16.55l5.224,16.529l4.005,12.763l2.875,9.28h15.927l-22.545-61
	h-11.754L179.76,81H195.691z M175.82,74.442c4.702-4.785,6.18-10.617,6.18-20.627V46.55l0.203-4.55H157v14h9v2.777
	c0,2.349-0.09,4.875-1.835,6.617c-1.392,1.479-3.31,2.435-6.531,2.435c-2.786,0-4.745-1.13-5.878-2.611
	c-1.393-1.829-2.196-4.002-2.196-15.318c0-11.317,0.901-13.407,2.294-15.234c1.133-1.481,3.236-2.698,6.021-2.698
	c4.924,0,7.367,2.038,8.654,6.21l13.209-7.114c-3.342-7.042-10.104-12.678-21.849-12.678c-7.485,0-12.704,2.439-17.233,6.966
	c-6.524,6.525-6.262,15.232-6.262,24.547c0,9.311-0.262,18.016,6.262,24.542c4.529,4.527,9.967,6.965,17.189,6.965
	C164.635,81.407,170.513,79.93,175.82,74.442z M153,150h39v-14h-25v-11h25v-14h-25v-11h25V88h-39V150z M210,88h-16v62h42v-14h-26V88
	z"/>
</svg>
