<?xml version="1.0" encoding="utf-8"?>
<!-- Generator: Adobe Illustrator 16.0.0, SVG Export Plug-In . SVG Version: 6.00 Build 0)  -->
<!DOCTYPE svg PUBLIC "-//W3C//DTD SVG 1.1//EN" "http://www.w3.org/Graphics/SVG/1.1/DTD/svg11.dtd">
<svg version="1.1" id="Layer_1" xmlns="http://www.w3.org/2000/svg" xmlns:xlink="http://www.w3.org/1999/xlink" x="0px" y="0px"
	 width="916.7px" height="293px" viewBox="0 0 916.7 293" style="enable-background:new 0 0 916.7 293;" xml:space="preserve">
<style type="text/css">
<![CDATA[
	.st0{fill:#623180;}
	.st1{fill:none;}
	.st2{fill:#D8352F;}
]]>
</style>
<g>
	<path class="st0" d="M943.7,316c0,0-329.6-280.5-337.6-295c-8-14.5-22-19.9-36.2-19.9c-14.2,0-32.1,12.9-32.1,12.9L522.2,3.3
		L441.7,3v22h28v39.5L412.2,4.2c-0.3-0.9-1.1-1.2-2.1-1.2l-24.2,0c-1.1,0-1.7,0.8-2,1.7l-7.7,21.6L355.7,4c0-0.3-0.3-0.5-0.4-0.6
		c0-0.1-0.3-0.2-0.3-0.2C354.7,2.9,354.4,3,354,3h-78.3l0,0c-0.6,0-1.3,0.6-1.3,1.4l0,11.4L263.7,4c0-0.9-0.2-1-1.1-1h-21
		c-0.9,0-1.9,0.1-1.9,1v31.7l-0.7-1.5l-30-29.5c-0.5-1-1.8-1.7-2.8-1.7h-22c-0.9,0-1.5,0.1-1.5,1v33.5c-1.5-1.7-3-3.2-4.8-4.5
		c-1.8-2.3-3.8-4.3-6-6c-1.8-2.3-3.8-4.3-6-6c-1.8-2.3-3.8-4.3-6-6c-7.3-9.5-19.1-14.2-32.6-14.2c-18,0-32.8,8.4-38.2,25
		c-0.5,1.7-1,3.4-1.3,5c-1.4-1.6-2.9-3-4.5-4.3c-1.8-2.2-3.8-4.2-6-6c-1.7-2.1-3.6-4-5.7-5.7C64.7,5.8,53.9,0.7,40,0.7
		C21.6,0.7,8.4,9.2,3,25.9c-2.2,6.9-3,12.4-3,27.6s0.8,20.7,3,27.6c2.5,7.6,6.6,13.5,12,17.7c1.8,2.3,3.8,4.3,6,6
		c1.8,2.3,3.8,4.3,6,6c1.8,2.3,3.8,4.3,6,6c1.8,2.3,3.8,4.3,6,6c1.8,2.3,3.8,4.3,6,6c1.8,2.3,3.8,4.3,6,6c1.8,2.3,3.8,4.3,6,6
		c1.8,2.3,3.8,4.3,6,6c1.8,2.3,3.8,4.3,6,6c1.8,2.3,3.8,4.3,6,6c1.8,2.3,3.8,4.3,6,6c1.8,2.3,3.8,4.3,6,6c1.8,2.3,3.8,4.3,6,6
		c1.8,2.3,3.8,4.3,6,6c1.8,2.3,3.8,4.3,6,6c1.8,2.3,3.8,4.3,6,6c1.8,2.3,3.8,4.3,6,6c1.8,2.3,3.8,4.3,6,6c1.8,2.3,3.8,4.3,6,6
		c1.8,2.3,3.8,4.3,6,6c1.8,2.3,3.8,4.3,6,6c1.8,2.3,3.8,4.3,6,6c1.8,2.3,81.5,76.6,83.7,78.3"/>
</g>
<g>
	<g>
		<path class="st2" d="M0,53c0-15.2,0.8-20.8,3-27.7C8.4,8.6,21.7,0,40.2,0c18,0,31,8.6,36.7,23.3c0.5,1.1,0.3,1.7-0.8,2.1l-20,8.7
			c-1.1,0.5-1.7,0.2-2.1-0.9c-2.9-6-6.5-9.6-13.4-9.6c-6.5,0-10.5,3.2-12.3,8.9c-1.1,3.2-1.5,6.3-1.5,20.5s0.5,17.3,1.5,20.5
			c1.8,5.7,5.9,8.9,12.3,8.9c6.9,0,10.5-3.6,13.4-9.6c0.5-1.1,1.1-1.4,2.1-0.9l20,8.7c1.1,0.5,1.2,1.1,0.8,2.1
			c-5.7,14.7-18.7,23.3-36.7,23.3c-18.5,0-31.7-8.6-37.1-25.3C0.8,73.7,0,68.1,0,53z"/>
		<path class="st2" d="M88.7,80.8c-2.4-7.8-3-13.8-3-27.8s0.6-20,3-27.8C94.2,8.4,109.1,0,127.1,0c18,0,32.9,8.4,38.4,25.1
			c2.6,7.8,3,13.8,3,27.8s-0.5,20-3,27.8c-5.4,16.7-20.3,25.1-38.4,25.1C109.1,105.9,94.2,97.5,88.7,80.8z M140.2,73.3
			c1.2-3.5,1.5-8.1,1.5-20.3c0-12.2-0.3-16.8-1.5-20.3c-1.8-5.7-6.5-9-13.1-9c-6.6,0-11.3,3.3-13.1,9c-1.2,3.5-1.5,8.1-1.5,20.3
			c0,12.2,0.3,16.8,1.5,20.3c1.8,5.7,6.5,9,13.1,9C133.7,82.3,138.4,79,140.2,73.3z"/>
		<path class="st2" d="M182.6,4.3c0-0.9,0.6-1.5,1.5-1.5h22.1c1.1,0,2.1,0.5,2.6,1.5l30.8,57.9h0.6V4.3c0-0.9,0.6-1.5,1.5-1.5h21.1
			c0.9,0,1.5,0.6,1.5,1.5v99.3c0,0.9-0.6,1.5-1.5,1.5h-22.1c-1.1,0-2.1-0.5-2.6-1.5l-30.5-57.8h-0.9v57.8c0,0.9-0.6,1.5-1.5,1.5
			h-21.1c-0.9,0-1.5-0.6-1.5-1.5V4.3z"/>
		<path class="st2" d="M303.4,105.2h-0.5c-0.3,0-0.5-0.2-0.8-0.5c-0.2-0.2-0.3-0.3-0.3-0.6v-0.5V27.3c0-0.5-0.3-0.8-0.8-0.9H301
			h-25.1h-0.5c-0.3,0-0.5-0.2-0.6-0.3l-0.1-0.2c0,0,0-0.2-0.2-0.2c-0.2-0.3-0.2-0.6-0.2-0.9V4.4c0-0.8,0.5-1.4,1.1-1.5h0.5h78.5
			c0.5,0,0.8,0.2,1.1,0.5c0,0,0.2,0.2,0.2,0.3c0.2,0.2,0.3,0.5,0.3,0.8v20.5c0,0.5-0.2,0.9-0.5,1.2c-0.2,0.2-0.5,0.3-0.8,0.3h-0.3
			h-25.1c-0.3,0-0.5,0-0.6,0.1c-0.2,0-0.2,0.2-0.3,0.3v0.5v76.4v0.5c-0.2,0.5-0.3,0.6-0.8,0.9c-0.2,0.2-0.5,0.2-0.8,0.2H303.4z"/>
		<path class="st2" d="M384,4.4c0.3-0.9,0.9-1.5,2-1.5h24.5c1.1,0,1.7,0.6,2,1.5l34.6,99.3c0.3,0.9-0.2,1.5-1.1,1.5h-24.8
			c-1.1,0-1.7-0.6-2-1.5l-4.8-15.8h-33.2l-4.8,15.8c-0.3,0.9-0.9,1.5-2,1.5h-24.7c-0.9,0-1.4-0.6-1.1-1.5L384,4.4z M407.7,66
			l-9.5-31.9h-0.5L387.9,66H407.7z"/>
		<path class="st2" d="M470.1,105.1h-0.5c-0.3,0-0.5-0.2-0.8-0.5c-0.1-0.2-0.3-0.3-0.3-0.6v-0.5V27.2c0-0.5-0.3-0.8-0.8-0.9h-0.1
			h-25.1h-0.5c-0.3,0-0.5-0.2-0.6-0.3l-0.2-0.2c0,0,0-0.2-0.2-0.2c-0.2-0.3-0.2-0.6-0.2-0.9V4.3c0-0.8,0.5-1.4,1.1-1.5h0.5h78.5
			c0.5,0,0.8,0.2,1.1,0.5c0,0,0.2,0.2,0.2,0.3c0.2,0.2,0.3,0.5,0.3,0.8v20.5c0,0.5-0.2,0.9-0.5,1.2c-0.2,0.2-0.5,0.3-0.8,0.3h-0.3
			H496c-0.3,0-0.5,0-0.6,0.1c-0.2,0-0.2,0.2-0.3,0.3v0.5v76.4v0.5c-0.2,0.5-0.3,0.6-0.8,0.9c-0.1,0.2-0.5,0.2-0.8,0.2H470.1z"/>
		<path class="st2" d="M531.5,81.8c-2.4-7.8-3-13.8-3-27.8s0.6-20,3-27.8C536.9,9.4,551.8,1,569.8,1c18,0,32.9,8.4,38.4,25.1
			c2.6,7.8,3,13.8,3,27.8s-0.5,20-3,27.8c-5.4,16.7-20.3,25.1-38.4,25.1C551.8,106.9,536.9,98.5,531.5,81.8z M582.9,74.3
			c1.2-3.5,1.5-8.1,1.5-20.3c0-12.2-0.3-16.8-1.5-20.3c-1.8-5.7-6.5-9-13.1-9s-11.3,3.3-13.1,9c-1.2,3.5-1.5,8.1-1.5,20.3
			c0,12.2,0.3,16.8,1.5,20.3c1.8,5.7,6.5,9,13.1,9S581.1,80,582.9,74.3z"/>
	</g>
</g>
<rect x="0.7" y="-29" class="st1" width="856" height="138"/>
</svg>
