<?xml version="1.0" encoding="utf-8"?>
<!-- Generator: Adobe Illustrator 16.0.0, SVG Export Plug-In . SVG Version: 6.00 Build 0)  -->
<!DOCTYPE svg PUBLIC "-//W3C//DTD SVG 1.1//EN" "http://www.w3.org/Graphics/SVG/1.1/DTD/svg11.dtd">
<svg version="1.1" id="Layer_1" xmlns="http://www.w3.org/2000/svg" xmlns:xlink="http://www.w3.org/1999/xlink" x="0px" y="0px"
	 width="582px" height="269px" viewBox="0 0 582 269" style="enable-background:new 0 0 582 269;" xml:space="preserve">
<style type="text/css">
<![CDATA[
	.st0{fill:#FFCF14;}
	.st1{fill:none;}
	.st2{fill:#D8352F;}
]]>
</style>
<g>
	<path class="st2" d="M145.9,6.5C145.6,5.6,145.1,5,144,5h-24.4c-1,0-1.6,0.6-1.9,1.5L103,47.8L71.8,16.7C65,8.1,54.5,3.2,41,3.2
		c-18.4,0-31.5,8.5-36.9,25.1c-2.2,6.9-3,12.4-3,27.5s0.7,20.6,3,27.5c2.4,7.4,6.4,13.2,11.6,17.4l305.8,305.8
		c6.9,8.6,17.4,13,30.6,13c13.5,0,24-4.9,30.9-13.6c0,0.7,0.4,1.1,1.1,1.1h5.6l-1.3,3.8c-0.3,0.9,0.2,1.2,1,1.2h5.8l-1.5,4.3
		c-0.3,0.9,0.1,1.7,1,1.7h24.5c1,0,1.6-0.5,1.9-1.4l4.8-15.6h22.2c0.3,0.6,0.9,1,1.8,1h2.2l1.1,3.6c0.3,0.9,0.9,1.4,1.9,1.4h2.2
		l1.1,3.6c0.3,0.9,0.9,1.4,1.9,1.4h1.9l1.4,4.6c0.3,0.9,0.9,1.4,1.9,1.4h24.7c0.9,0,1.3-0.8,1-1.7l-9.1-26c1,0.8,2.1,1.6,3.3,2.4
		c-0.2,0.6,0,1.3,0.6,1.7c1.3,1.2,2.9,2.4,4.7,3.6c-0.2,0.6,0,1.3,0.6,1.7c1.3,1.2,2.9,2.4,4.7,3.6c-0.2,0.6,0,1.3,0.6,1.7
		c8,7.1,24.4,14.5,41,14.5c19.9,0,33-7.4,38.5-18.7c0,0.7,0.2,1.2,1,1.2h4v3.7c0,0.9,0.4,1.3,1.3,1.3h3.7v3.9c0,0.9,0.7,1.1,1.6,1.1
		h3.4v4.2c0,0.9,0.9,1.8,1.8,1.8h66.5c0.9,0,1.6-0.9,1.6-1.8V397c0-0.9-0.7-1.9-1.6-1.9h-3.4v-3.4c0-0.9-1-1.6-1.9-1.6h-4.1v-3.6
		c0-0.9-0.3-1.4-1.2-1.4h-3.8v-3.9c0-0.9-0.6-1.1-1.5-1.1h-3.5v-3h3.3c-0.1,0.6,0.1,1.2,0.6,1.6c1.3,1.2,2.9,2.4,4.7,3.6
		c-0.2,0.6,0,1.3,0.6,1.7c1.3,1.2,2.9,2.4,4.7,3.6c-0.2,0.6,0,1.3,0.6,1.7c1.3,1.2,2.9,2.4,4.7,3.6c-0.2,0.6,0,1.3,0.6,1.7
		c1.3,1.2,2.9,2.4,4.7,3.6c-0.2,0.6,0,1.3,0.6,1.7c1.3,1.2,2.9,2.4,4.7,3.6c-0.2,0.6,0,1.3,0.6,1.7c8,7.1,24.4,14.5,41,14.5
		c27.2,0,41.6-13.8,41.6-32.6c0-10.9-3.6-18.7-10.7-24.1c-1.5-2-3.2-3.7-5.3-5.3c-1.5-2-3.2-3.7-5.3-5.3c-1.5-2-3.2-3.7-5.3-5.3
		c-1.5-2-3.2-3.7-5.3-5.3c-1.2-1.7-2.7-3.2-4.4-4.6c6.4,0.9,12.4,3.6,18.3,7.3c0.7,0.5,1.5,0.3,2.1-0.4l11.2-16.3
		c0.6-0.9,0.5-1.7-0.3-2.2L437.1,14.4c-9-7-22.3-11.2-36.3-11.2c-17,0-29.5,7-34.9,18.2l-15.6-15c0-0.9-0.8-1.5-1.7-1.5H282
		c-0.9,0-1.8,0.6-1.8,1.5V33l-16.9-18.4c-9-7-22.3-11.3-36.3-11.3c-23,0-37.8,12.7-37.8,31.7L145.9,6.5z"/>
	<g>
		<g>
			<path class="st0" d="M0.8,55.6c0-15.1,0.7-20.6,3-27.5C9.2,11.5,22.3,2.9,40.7,2.9c17.9,0,30.8,8.5,36.5,23.2
				c0.4,1,0.3,1.6-0.7,2.1l-19.9,8.7c-1,0.4-1.6,0.1-2.1-0.9c-2.8-6-6.4-9.6-13.3-9.6c-6.4,0-10.5,3.1-12.3,8.8
				c-1,3.1-1.5,6.3-1.5,20.3s0.4,17.2,1.5,20.3c1.8,5.7,5.8,8.8,12.3,8.8c6.9,0,10.5-3.6,13.3-9.6c0.4-1,1-1.3,2.1-0.9l19.9,8.7
				c1,0.4,1.2,1,0.7,2.1c-5.7,14.7-18.5,23.2-36.5,23.2c-18.4,0-31.5-8.5-36.9-25.1C1.5,76.2,0.8,70.7,0.8,55.6z"/>
			<path class="st0" d="M117.4,6.2c0.3-0.9,0.9-1.5,1.9-1.5h24.4c1,0,1.6,0.6,1.9,1.5l34.4,98.7c0.3,0.9-0.1,1.5-1,1.5h-24.7
				c-1,0-1.6-0.6-1.9-1.5l-4.8-15.7h-33l-4.8,15.7c-0.3,0.9-0.9,1.5-1.9,1.5H83.3c-0.9,0-1.3-0.6-1-1.5L117.4,6.2z M141,67.4
				l-9.4-31.7h-0.4l-9.9,31.7H141z"/>
			<path class="st0" d="M185.4,93.7c-0.7-0.6-0.9-1.6-0.1-2.4l13.5-15.8c0.6-0.7,1.5-0.7,2.1-0.2c6.1,5.4,15.7,10.2,25.9,10.2
				c9.4,0,14.4-3.9,14.4-9.6c0-4.3-2.8-7.2-12.9-8.5l-5.4-0.7c-22-3.1-33.9-13-33.9-32s14.8-31.7,37.8-31.7
				c14.1,0,27.2,4.3,36.3,11.2c0.7,0.6,0.9,1.3,0.3,2.2l-11.2,16.3c-0.6,0.7-1.3,0.9-2.1,0.4c-7.2-4.8-14.8-7.6-22.9-7.6
				c-7.5,0-11.2,3.6-11.2,8.5c0,4.5,3.3,7.3,13,8.5l5.4,0.7c22.3,3.1,33.6,13,33.6,32.3c0,18.8-14.4,32.6-41.6,32.6
				C209.8,108.2,193.1,101.2,185.4,93.7z"/>
			<path class="st0" d="M280.2,6.2c0-0.9,0.6-1.5,1.5-1.5h66.5c0.9,0,1.5,0.6,1.5,1.5v19.3c0,0.9-0.6,1.5-1.5,1.5h-40.8
				c-0.6,0-0.9,0.3-0.9,0.9v15.4c0,0.6,0.3,0.9,0.9,0.9h33.5c0.9,0,1.5,0.6,1.5,1.5v18.8c0,0.9-0.6,1.5-1.5,1.5h-33.5
				c-0.6,0-0.9,0.3-0.9,0.9v16.3c0,0.6,0.3,0.9,0.9,0.9h40.8c0.9,0,1.5,0.6,1.5,1.5v19.3c0,0.9-0.6,1.5-1.5,1.5h-66.5
				c-0.9,0-1.5-0.6-1.5-1.5V6.2z"/>
			<path class="st0" d="M359.2,93.7c-0.7-0.6-0.9-1.6-0.1-2.4l13.5-15.8c0.6-0.7,1.5-0.7,2.1-0.2c6.1,5.4,15.7,10.2,25.9,10.2
				c9.4,0,14.4-3.9,14.4-9.6c0-4.3-2.8-7.2-12.9-8.5l-5.4-0.7c-22-3.1-33.9-13-33.9-32s14.8-31.7,37.8-31.7
				c14.1,0,27.2,4.3,36.3,11.2c0.7,0.6,0.9,1.3,0.3,2.2l-11.2,16.3c-0.6,0.7-1.3,0.9-2.1,0.4c-7.2-4.8-14.8-7.6-22.9-7.6
				c-7.5,0-11.2,3.6-11.2,8.5c0,4.5,3.3,7.3,13,8.5l5.4,0.7c22.3,3.1,33.6,13,33.6,32.3c0,18.8-14.4,32.6-41.6,32.6
				C383.6,108.2,366.8,101.2,359.2,93.7z"/>
		</g>
	</g>
</g>
<rect x="-15.8" y="-31" class="st1" width="483" height="255"/>
</svg>
